# xmcd
# Track frame offsets:
# 150
# 14652
# 27057
# 40716
# 51770
# 63137
# 76810
# 89229
# 101272
# 112166
# 127852
# 137945
# 153332
# 167238
#
# Disc length: 2375 seconds
# Revision: 0
# Processed by: cddbd v1.5.2PL0 Copyright (c) Steve Scherf et al.
# Submitted via: VisiTrax 2.11.3.279 - For more info visit www.synapsa.com
#
DISCID=b109450e
DTITLE=Sammy Kershaw - Do You Know Me ?
DYEAR=2014
DGENRE=
TTITLE0=The Grand Tour
TTITLE1=Once you´ve Had The Best
TTITLE2=she Thinks I Still Care
TTITLE3=Why Baby Why
TTITLE4=Walk Through This  World With Me
TTITLE5=When The Grass Grows Over Me
TTITLE6=Winddow Up Above
TTITLE7=White Lightning
TTITLE8=Near You (with Georgette Jones)
TTITLE9=He Stopped Loving Her Today
TTITLE10=The Race Is On
TTITLE11=Who´s Gonna Fill Their Shoes
TTITLE12=Do You Know Me ?
TTITLE13=The Route That I Took
EXTD=
EXTT0=
EXTT1=
EXTT2=
EXTT3=
EXTT4=
EXTT5=
EXTT6=
EXTT7=
EXTT8=
EXTT9=
EXTT10=
EXTT11=
EXTT12=
EXTT13=
PLAYORDER=
